Coordinates
version=1
nRows=17
nColumns=40
inDegrees=yes

Units are S.I. units (second, meters, Newtons, ...)
If the header above contains a line with 'inDegrees', this indicates whether rotational values are in degrees (yes) or radians (no).

endheader
time	pelvis_tilt	pelvis_list	pelvis_rotation	pelvis_tx	pelvis_ty	pelvis_tz	hip_flexion_r	hip_adduction_r	hip_rotation_r	knee_angle_r	knee_angle_r_beta	ankle_angle_r	subtalar_angle_r	mtp_angle_r	hip_flexion_l	hip_adduction_l	hip_rotation_l	knee_angle_l	knee_angle_l_beta	ankle_angle_l	subtalar_angle_l	mtp_angle_l	lumbar_extension	lumbar_bending	lumbar_rotation	arm_flex_r	arm_add_r	arm_rot_r	elbow_flex_r	pro_sup_r	wrist_flex_r	wrist_dev_r	arm_flex_l	arm_add_l	arm_rot_l	elbow_flex_l	pro_sup_l	wrist_flex_l	wrist_dev_l
      0.00500000	     -3.10777560	      2.10171193	     -1.88679164	      0.22818589	      0.89680134	     -1.19934795	      1.73948424	    -22.05850076	    -37.71912547	      5.99240972	      0.10458728	     -9.70848916	     14.79284503	      0.00000000	      0.83643804	    -15.82863752	    -38.50704481	      3.37049675	      0.05882627	    -11.30383643	     20.89523375	      0.00000000	     -0.82833500	     -2.00248992	     -2.68889590	     44.39096740	    -16.85774795	     44.39096740	     75.00265332	     45.00198537	      0.00000000	      0.00000000	     44.39096740	    -16.85774795	     44.39096740	     75.00265332	     45.00198537	      0.00000000	      0.00000000
      0.01000000	     -3.11758366	      2.08986173	     -1.87602919	      0.22818623	      0.89679057	     -1.19935240	      1.73969716	    -22.04139184	    -37.72596572	      5.96901676	      0.10417900	     -9.76683975	     14.77239279	      0.00000000	      0.84475288	    -15.83486030	    -38.46620022	      3.34768687	      0.05842816	    -11.31587062	     20.88012245	      0.00000000	     -0.81235557	     -1.98410554	     -2.66361379	     44.45229145	    -16.57515373	     44.45229145	     75.00204537	     45.00118485	      0.00000000	      0.00000000	     44.45229145	    -16.57515373	     44.45229145	     75.00204537	     45.00118485	      0.00000000	      0.00000000
      0.01500000	     -3.11184254	      2.04656598	     -1.86567402	      0.22820586	      0.89683652	     -1.19937375	      1.66759626	    -21.93631000	    -37.64313279	      5.81183172	      0.10143560	     -9.82455764	     14.66119841	      0.00000000	      0.84497608	    -15.88901562	    -38.46982991	      3.36985861	      0.05881513	    -11.30449844	     20.88156950	      0.00000000	     -0.81864380	     -1.94392325	     -2.72219580	     44.45828715	    -16.54652597	     44.45828715	     75.00197924	     45.00107741	      0.00000000	      0.00000000	     44.45828715	    -16.54652597	     44.45828715	     75.00197924	     45.00107741	      0.00000000	      0.00000000
      0.02000000	     -3.12234244	      2.10405983	     -1.85676243	      0.22818639	      0.89676853	     -1.19937196	      1.74711027	    -22.06753308	    -37.75899045	      6.00850756	      0.10486824	     -9.66930595	     14.83215450	      0.00000000	      0.88528503	    -15.85377659	    -38.54922283	      3.44602174	      0.06014443	    -11.23628554	     21.02333905	      0.00000000	     -0.81168699	     -1.95566938	     -2.61623758	     44.47119614	    -16.49769892	     44.47119614	     75.00191189	     45.00105558	      0.00000000	      0.00000000	     44.47119614	    -16.49769892	     44.47119614	     75.00191189	     45.00105558	      0.00000000	      0.00000000
      0.02500000	     -3.11582039	      2.10457986	     -1.85923379	      0.22822820	      0.89676989	     -1.19938456	      1.73328839	    -22.07092000	    -37.76402076	      6.01342899	      0.10495414	     -9.61486883	     14.87177890	      0.00000000	      0.86442668	    -15.84115363	    -38.53581276	      3.41601430	      0.05962070	    -11.23244989	     21.00462866	      0.00000000	     -0.80221219	     -1.92674883	     -2.59514266	     44.47699572	    -16.47243828	     44.47699572	     75.00186179	     45.00099249	      0.00000000	      0.00000000	     44.47699572	    -16.47243828	     44.47699572	     75.00186179	     45.00099249	      0.00000000	      0.00000000
      0.03000000	     -3.10505572	      2.08068238	     -1.87170552	      0.22822233	      0.89680904	     -1.19932515	      1.71579488	    -22.02658460	    -37.74596493	      5.96454025	      0.10410087	     -9.71338099	     14.80761900	      0.00000000	      0.83341575	    -15.85477148	    -38.49952496	      3.37244909	      0.05886034	    -11.29479508	     20.90482889	      0.00000000	     -0.82052361	     -1.93881362	     -2.62280417	     44.48527186	    -16.43661420	     44.48527186	     75.00179137	     45.00090500	      0.00000000	      0.00000000	     44.48527186	    -16.43661420	     44.48527186	     75.00179137	     45.00090500	      0.00000000	      0.00000000
      0.03500000	     -3.10783558	      2.15264507	     -1.88401249	      0.22822476	      0.89680120	     -1.19930365	      1.75146906	    -22.12675542	    -37.73412725	      6.03718147	      0.10536869	     -9.64667202	     14.80576956	      0.00000000	      0.83179971	    -15.77131412	    -38.52191941	      3.36213358	      0.05868030	    -11.31108461	     20.91317301	      0.00000000	     -0.81324893	     -1.95485655	     -2.48649787	     44.51210834	    -16.32473030	     44.51210834	     75.00159081	     45.00071378	      0.00000000	      0.00000000	     44.51210834	    -16.32473030	     44.51210834	     75.00159081	     45.00071378	      0.00000000	      0.00000000
      0.04000000	     -3.11748808	      2.09949550	     -1.87525900	      0.22824234	      0.89680930	     -1.19930497	      1.73776971	    -22.05234973	    -37.73955205	      5.98604385	      0.10447617	     -9.69731668	     14.80095879	      0.00000000	      0.83622115	    -15.82668887	    -38.49359333	      3.34966036	      0.05846260	    -11.30020768	     20.91071863	      0.00000000	     -0.80399686	     -1.88838377	     -2.47799507	     44.52853772	    -16.25839638	     44.52853772	     75.00147787	     45.00061272	      0.00000000	      0.00000000	     44.52853772	    -16.25839638	     44.52853772	     75.00147787	     45.00061272	      0.00000000	      0.00000000
      0.04500000	     -3.07959093	      2.00132923	     -1.83407113	      0.22821822	      0.89690436	     -1.19934940	      1.61041984	    -21.88178440	    -37.69391329	      5.79964323	      0.10122287	     -9.85400562	     14.63686904	      0.00000000	      0.83743558	    -15.96249621	    -38.48298636	      3.43494804	      0.05995115	    -11.24224229	     20.94864425	      0.00000000	     -0.85839289	     -1.79202789	     -2.55435054	     44.55319839	    -16.16041162	     44.55319839	     75.00131793	     45.00048856	      0.00000000	      0.00000000	     44.55319839	    -16.16041162	     44.55319839	     75.00131793	     45.00048856	      0.00000000	      0.00000000
      0.05000000	     -3.11405873	      1.98427472	     -1.82599814	      0.22819401	      0.89685886	     -1.19936354	      1.66516379	    -21.87271435	    -37.72422063	      5.83589025	      0.10185550	     -9.84383070	     14.64232554	      0.00000000	      0.88708614	    -15.98689761	    -38.47974436	      3.45403990	      0.06028437	    -11.22575499	     20.89869380	      0.00000000	     -0.82899949	     -1.80039178	     -2.59780729	     44.57552547	    -16.07394249	     44.57552547	     75.00118468	     45.00040108	      0.00000000	      0.00000000	     44.57552547	    -16.07394249	     44.57552547	     75.00118468	     45.00040108	      0.00000000	      0.00000000
      0.05500000	     -3.12208130	      2.09084345	     -1.86149759	      0.22827155	      0.89681987	     -1.19931325	      1.73059626	    -22.03957064	    -37.74619838	      5.97941633	      0.10436050	     -9.69033671	     14.78188296	      0.00000000	      0.84554446	    -15.84041144	    -38.50052121	      3.35827247	      0.05861291	    -11.30197945	     20.94750871	      0.00000000	     -0.79378003	     -1.88332915	     -2.50481475	     44.58390827	    -16.04217690	     44.58390827	     75.00113589	     45.00036396	      0.00000000	      0.00000000	     44.58390827	    -16.04217690	     44.58390827	     75.00113589	     45.00036396	      0.00000000	      0.00000000
      0.06000000	     -3.19203542	      2.15453817	     -1.80532000	      0.22834138	      0.89666229	     -1.19936940	      1.83409891	    -22.17569673	    -37.91220788	      6.15851181	      0.10748631	     -9.51912297	     14.97822922	      0.00000000	      0.98331878	    -15.81665190	    -38.54607810	      3.48844439	      0.06088484	    -11.20663647	     21.14853825	      0.00000000	     -0.69259628	     -1.90977608	     -2.47532880	     44.59949734	    -15.98387618	     44.59949734	     75.00104932	     45.00030446	      0.00000000	      0.00000000	     44.59949734	    -15.98387618	     44.59949734	     75.00104932	     45.00030446	      0.00000000	      0.00000000
      0.06500000	     -3.09501738	      2.13190059	     -1.91808765	      0.22829252	      0.89686800	     -1.19916552	      1.72557369	    -22.06915112	    -37.64390291	      5.96298171	      0.10407366	     -9.66722986	     14.69661781	      0.00000000	      0.73605693	    -15.74250098	    -38.44570288	      3.19028010	      0.05568089	    -11.43611881	     20.75813489	      0.00000000	     -0.81522158	     -1.90921179	     -2.37453504	     44.61768237	    -15.91727756	     44.61768237	     75.00095566	     45.00024957	      0.00000000	      0.00000000	     44.61768237	    -15.91727756	     44.61768237	     75.00095566	     45.00024957	      0.00000000	      0.00000000
      0.07000000	     -3.15029652	      2.08748863	     -1.91450047	      0.22832748	      0.89678010	     -1.19913360	      1.79654901	    -22.01997462	    -37.64490446	      6.00122197	      0.10474108	     -9.62139418	     14.66817742	      0.00000000	      0.82216871	    -15.83868232	    -38.53483249	      3.28843654	      0.05739404	    -11.35970282	     20.99119468	      0.00000000	     -0.74953796	     -1.75078610	     -2.18097662	     44.63385030	    -15.85832543	     44.63385030	     75.00087359	     45.00020386	      0.00000000	      0.00000000	     44.63385030	    -15.85832543	     44.63385030	     75.00087359	     45.00020386	      0.00000000	      0.00000000
      0.07500000	     -3.13348843	      2.02913182	     -1.82440367	      0.22830119	      0.89683991	     -1.19929519	      1.69754413	    -21.94351800	    -37.76283192	      5.90720414	      0.10310016	     -9.74678877	     14.71953239	      0.00000000	      0.89201743	    -15.93593841	    -38.50465151	      3.43110962	      0.05988416	    -11.24651236	     21.02342314	      0.00000000	     -0.77051007	     -1.75624500	     -2.38668739	     44.64238701	    -15.82827933	     44.64238701	     75.00083378	     45.00018213	      0.00000000	      0.00000000	     44.64238701	    -15.82827933	     44.64238701	     75.00083378	     45.00018213	      0.00000000	      0.00000000
      0.08000000	     -3.13878823	      2.02625955	     -1.81998322	      0.22833043	      0.89684427	     -1.19931188	      1.69687619	    -21.93704850	    -37.74952618	      5.89539632	      0.10289408	     -9.75768048	     14.71487560	      0.00000000	      0.86727950	    -15.91245065	    -38.46927606	      3.35239277	      0.05851029	    -11.31828637	     20.94237374	      0.00000000	     -0.76426446	     -1.76652522	     -2.43473826	     44.67151687	    -15.72585108	     44.67151687	     75.00070096	     45.00011972	      0.00000000	      0.00000000	     44.67151687	    -15.72585108	     44.67151687	     75.00070096	     45.00011972	      0.00000000	      0.00000000
      0.08500000	     -3.18423858	      2.13865407	     -1.83504252	      0.22836113	      0.89672059	     -1.19932327	      1.83677441	    -22.14381359	    -37.83506889	      6.13707903	      0.10711224	     -9.53874129	     14.91571190	      0.00000000	      0.92019999	    -15.79541252	    -38.53771700	      3.37177989	      0.05884866	    -11.27323250	     21.05802502	      0.00000000	     -0.69263636	     -1.85064046	     -2.38714514	     44.68526505	    -15.67993926	     44.68526505	     75.00064704	     45.00009842	      0.00000000	      0.00000000	     44.68526505	    -15.67993926	     44.68526505	     75.00064704	     45.00009842	      0.00000000	      0.00000000
